<svg width="20" height="19" viewBox="0 0 20 19" fill="none" xmlns="http://www.w3.org/2000/svg">
<path fill-rule="evenodd" clip-rule="evenodd" d="M7.10019 3.50015C7.10019 3.16878 7.36882 2.90015 7.70019 2.90015H19.2002C19.3703 2.90015 19.5323 2.97231 19.6461 3.0987C19.7599 3.22509 19.8147 3.39383 19.7969 3.56296L19.0796 10.377C18.8868 12.2092 17.3417 13.6001 15.4994 13.6001H6.69207L6.28854 15.6178C6.22355 15.9428 5.90746 16.1535 5.58252 16.0885C5.25759 16.0235 5.04686 15.7074 5.11184 15.3825L5.47691 13.5571C5.28734 13.4811 5.14366 13.3106 5.10835 13.0988L3.60835 4.09879C3.55388 3.77192 3.77469 3.46279 4.10155 3.40831C4.42841 3.35383 4.73755 3.57464 4.79203 3.90151L6.20847 12.4001H15.4994C16.7276 12.4001 17.7576 11.4729 17.8862 10.2514L18.5337 4.10015H7.70019C7.36882 4.10015 7.10019 3.83152 7.10019 3.50015ZM7.10019 17.0001C7.10019 16.6688 7.36882 16.4001 7.70019 16.4001H14.7002C15.0316 16.4001 15.3002 16.6688 15.3002 17.0001C15.3002 17.3315 15.0316 17.6001 14.7002 17.6001H7.70019C7.36882 17.6001 7.10019 17.3315 7.10019 17.0001Z" fill="white"/>
<path fill-rule="evenodd" clip-rule="evenodd" d="M7.05015 3.5001C7.05015 3.14111 7.34117 2.8501 7.70015 2.8501H19.2002C19.3844 2.8501 19.56 2.92828 19.6832 3.0652C19.8065 3.20212 19.8659 3.38492 19.8466 3.56814L19.1293 10.3822C18.9338 12.2399 17.3673 13.6501 15.4994 13.6501H6.73302L6.33753 15.6276C6.26712 15.9796 5.92469 16.2079 5.57267 16.1375C5.22066 16.0671 4.99237 15.7246 5.06277 15.3726L5.41996 13.5867C5.23375 13.4976 5.09484 13.322 5.05899 13.107L3.55899 4.10696C3.49998 3.75286 3.73919 3.41796 4.09329 3.35894C4.44739 3.29992 4.78229 3.53914 4.84131 3.89324L6.25078 12.3501H15.4994C16.702 12.3501 17.7106 11.4421 17.8365 10.2461L18.4781 4.1501H7.70015C7.34117 4.1501 7.05015 3.85908 7.05015 3.5001ZM7.70015 2.9501C7.39639 2.9501 7.15015 3.19634 7.15015 3.5001C7.15015 3.80385 7.39639 4.0501 7.70015 4.0501H18.5337C18.5478 4.0501 18.5614 4.05611 18.5708 4.06664C18.5803 4.07718 18.5849 4.09124 18.5834 4.10533L17.9359 10.2566C17.8046 11.5035 16.7532 12.4501 15.4994 12.4501H6.20843C6.18398 12.4501 6.16313 12.4324 6.15911 12.4083L4.74267 3.90968C4.69273 3.61005 4.40935 3.40764 4.10973 3.45758C3.81011 3.50752 3.6077 3.79089 3.65763 4.09052L5.15763 13.0905C5.18999 13.2847 5.32166 13.4409 5.49549 13.5107C5.51784 13.5197 5.53062 13.5433 5.5259 13.5669L5.16083 15.3922C5.10126 15.6901 5.29443 15.9798 5.59229 16.0394C5.89014 16.099 6.1799 15.9058 6.23947 15.608L6.643 13.5903C6.64768 13.5669 6.6682 13.5501 6.69203 13.5501H15.4994C17.3161 13.5501 18.8397 12.1785 19.0299 10.3717L19.7471 3.55767C19.7634 3.40264 19.7132 3.24796 19.6089 3.13211C19.5046 3.01625 19.356 2.9501 19.2002 2.9501H7.70015ZM7.05015 17.0001C7.05015 16.6411 7.34117 16.3501 7.70015 16.3501H14.7002C15.0591 16.3501 15.3502 16.6411 15.3502 17.0001C15.3502 17.3591 15.0591 17.6501 14.7002 17.6501H7.70015C7.34117 17.6501 7.05015 17.3591 7.05015 17.0001ZM7.70015 16.4501C7.39639 16.4501 7.15015 16.6963 7.15015 17.0001C7.15015 17.3039 7.39639 17.5501 7.70015 17.5501H14.7002C15.0039 17.5501 15.2502 17.3039 15.2502 17.0001C15.2502 16.6963 15.0039 16.4501 14.7002 16.4501H7.70015Z" fill="white"/>
<path fill-rule="evenodd" clip-rule="evenodd" d="M5.7002 17.8002C6.14202 17.8002 6.5002 17.4421 6.5002 17.0002C6.5002 16.5584 6.14202 16.2002 5.7002 16.2002C5.25837 16.2002 4.9002 16.5584 4.9002 17.0002C4.9002 17.4421 5.25837 17.8002 5.7002 17.8002ZM5.7002 19.0002C6.80476 19.0002 7.7002 18.1048 7.7002 17.0002C7.7002 15.8957 6.80476 15.0002 5.7002 15.0002C4.59563 15.0002 3.7002 15.8957 3.7002 17.0002C3.7002 18.1048 4.59563 19.0002 5.7002 19.0002Z" fill="white"/>
<path fill-rule="evenodd" clip-rule="evenodd" d="M6.6002 17.0002C6.6002 17.4973 6.19725 17.9002 5.7002 17.9002C5.20314 17.9002 4.8002 17.4973 4.8002 17.0002C4.8002 16.5032 5.20314 16.1002 5.7002 16.1002C6.19725 16.1002 6.6002 16.5032 6.6002 17.0002ZM5.7002 18.9002C6.74954 18.9002 7.6002 18.0496 7.6002 17.0002C7.6002 15.9509 6.74954 15.1002 5.7002 15.1002C4.65085 15.1002 3.8002 15.9509 3.8002 17.0002C3.8002 18.0496 4.65085 18.9002 5.7002 18.9002ZM6.5002 17.0002C6.5002 17.4421 6.14202 17.8002 5.7002 17.8002C5.25837 17.8002 4.9002 17.4421 4.9002 17.0002C4.9002 16.5584 5.25837 16.2002 5.7002 16.2002C6.14202 16.2002 6.5002 16.5584 6.5002 17.0002ZM7.7002 17.0002C7.7002 18.1048 6.80476 19.0002 5.7002 19.0002C4.59563 19.0002 3.7002 18.1048 3.7002 17.0002C3.7002 15.8957 4.59563 15.0002 5.7002 15.0002C6.80476 15.0002 7.7002 15.8957 7.7002 17.0002Z" fill="white"/>
<path fill-rule="evenodd" clip-rule="evenodd" d="M17.7002 17.8002C18.142 17.8002 18.5002 17.4421 18.5002 17.0002C18.5002 16.5584 18.142 16.2002 17.7002 16.2002C17.2584 16.2002 16.9002 16.5584 16.9002 17.0002C16.9002 17.4421 17.2584 17.8002 17.7002 17.8002ZM17.7002 19.0002C18.8048 19.0002 19.7002 18.1048 19.7002 17.0002C19.7002 15.8957 18.8048 15.0002 17.7002 15.0002C16.5956 15.0002 15.7002 15.8957 15.7002 17.0002C15.7002 18.1048 16.5956 19.0002 17.7002 19.0002Z" fill="white"/>
<path fill-rule="evenodd" clip-rule="evenodd" d="M18.6002 17.0002C18.6002 17.4973 18.1973 17.9002 17.7002 17.9002C17.2031 17.9002 16.8002 17.4973 16.8002 17.0002C16.8002 16.5032 17.2031 16.1002 17.7002 16.1002C18.1973 16.1002 18.6002 16.5032 18.6002 17.0002ZM17.7002 18.9002C18.7495 18.9002 19.6002 18.0496 19.6002 17.0002C19.6002 15.9509 18.7495 15.1002 17.7002 15.1002C16.6509 15.1002 15.8002 15.9509 15.8002 17.0002C15.8002 18.0496 16.6509 18.9002 17.7002 18.9002ZM18.5002 17.0002C18.5002 17.4421 18.142 17.8002 17.7002 17.8002C17.2584 17.8002 16.9002 17.4421 16.9002 17.0002C16.9002 16.5584 17.2584 16.2002 17.7002 16.2002C18.142 16.2002 18.5002 16.5584 18.5002 17.0002ZM19.7002 17.0002C19.7002 18.1048 18.8048 19.0002 17.7002 19.0002C16.5956 19.0002 15.7002 18.1048 15.7002 17.0002C15.7002 15.8957 16.5956 15.0002 17.7002 15.0002C18.8048 15.0002 19.7002 15.8957 19.7002 17.0002Z" fill="white"/>
<path fill-rule="evenodd" clip-rule="evenodd" d="M0.600098 1.00015C0.600098 0.668776 0.868727 0.400146 1.2001 0.400146H3.7001C3.9934 0.400146 4.24372 0.612194 4.29193 0.901507L4.79193 3.90151C4.84641 4.22837 4.6256 4.53751 4.29874 4.59198C3.97187 4.64646 3.66274 4.42565 3.60826 4.09879L3.19182 1.60015H1.2001C0.868727 1.60015 0.600098 1.33152 0.600098 1.00015Z" fill="white"/>
<path fill-rule="evenodd" clip-rule="evenodd" d="M0.550049 1.0001C0.550049 0.641113 0.841064 0.350098 1.20005 0.350098H3.70005C4.01779 0.350098 4.28897 0.579816 4.3412 0.893238L4.84121 3.89324C4.90022 4.24734 4.66101 4.58224 4.30691 4.64125C3.95281 4.70027 3.61791 4.46106 3.55889 4.10696L3.14942 1.6501H1.20005C0.841064 1.6501 0.550049 1.35908 0.550049 1.0001ZM1.20005 0.450098C0.896292 0.450098 0.650049 0.696341 0.650049 1.0001C0.650049 1.30385 0.896292 1.5501 1.20005 1.5501H3.19177C3.21621 1.5501 3.23707 1.56777 3.24109 1.59188L3.65753 4.09052C3.70747 4.39014 3.99084 4.59255 4.29047 4.54261C4.59009 4.49268 4.7925 4.2093 4.74257 3.90968L4.24257 0.909678C4.19836 0.644475 3.96891 0.450098 3.70005 0.450098H1.20005Z" fill="white"/>
</svg>
