<svg width="186" height="82" viewBox="0 0 186 82" fill="none" xmlns="http://www.w3.org/2000/svg">
<path d="M21.1909 63.7773H18.5835V66.3847H21.1909V63.7773Z" fill="white"/>
<path d="M32.4351 56.7702C32.1092 56.5257 31.7832 56.2405 31.4166 55.9146C29.9907 54.6924 28.2796 53.1443 27.0574 51.7184C26.813 51.474 26.5685 51.2295 26.4056 50.9443C26.3648 50.9036 26.3648 50.8629 26.3241 50.8629C26.0796 50.5777 25.9167 50.2925 25.7537 50.0073C25.5908 50.1295 25.3463 50.2925 25.1019 50.4555L25.0611 50.4962C24.9797 50.5369 24.8982 50.6184 24.8167 50.6592C24.7352 50.6999 24.6537 50.7814 24.5723 50.8629L24.5315 50.9036C24.45 50.9851 24.3686 51.0258 24.2463 51.1073C24.1649 51.1888 24.0834 51.2295 23.9612 51.311C23.9204 51.311 23.9204 51.3517 23.8797 51.3517C23.7982 51.4332 23.676 51.5147 23.5945 51.5962C23.513 51.6777 23.3908 51.7591 23.3093 51.8406L23.2686 51.8814C23.1871 51.9628 23.0649 52.0443 22.9834 52.1665C22.9019 52.248 22.7797 52.3702 22.6982 52.4517L22.6575 52.4925C22.4538 52.6962 22.2908 52.8999 22.0871 53.1036L22.0464 53.1443C21.8834 53.348 21.6797 53.5517 21.5168 53.7961L21.476 53.8369C21.3131 54.0406 21.1908 54.285 21.0279 54.5295L20.9871 54.5702C20.9057 54.6924 20.8649 54.8146 20.8242 54.9369C20.6205 55.3443 20.4983 55.7517 20.4575 56.1998V56.4442V61.9441C20.9871 62.1478 22.2908 62.596 24.0019 62.5552C25.0611 62.5552 26.2833 62.3515 27.6278 61.8627C29.4611 61.1701 31.4981 59.9071 33.5758 57.6257C33.2499 57.4627 32.8832 57.1776 32.4351 56.7702Z" fill="white"/>
<path d="M37.6499 35.8703L36.7537 36.5629L28.7686 42.7553L27.7501 43.5294L26.3242 44.6294V46.259V48.8663V48.9071L26.365 48.9886L26.4057 49.1108C26.4464 49.1923 26.4872 49.2737 26.5279 49.3552C27.3427 50.9033 29.9093 53.307 31.9463 55.0181C32.1908 55.2218 32.4352 55.4255 32.6797 55.6292C33.5759 54.9366 37.4462 51.7996 38.8314 48.3775C38.9129 48.2145 38.9536 48.0108 39.0351 47.8478V34.811L37.6499 35.8703Z" fill="white"/>
<path d="M19.3575 61.9849V56.485V56.2405C19.3167 55.8331 19.1538 55.385 18.9908 54.9776C18.9501 54.8554 18.8686 54.7739 18.8279 54.6517C18.8279 54.6109 18.7871 54.5702 18.7871 54.5702C18.7464 54.4887 18.6649 54.4072 18.6242 54.3258C18.6242 54.285 18.5834 54.285 18.5834 54.2443C18.5019 54.1628 18.4612 54.0406 18.3797 53.9591C18.339 53.9184 18.339 53.8776 18.2982 53.8369C18.2575 53.7554 18.2168 53.7147 18.1353 53.6332C18.0945 53.5517 18.0538 53.511 17.9723 53.4295C17.9316 53.3887 17.8908 53.3073 17.8094 53.2665C17.7686 53.2258 17.7279 53.1443 17.6871 53.1036C17.6464 53.0628 17.6057 53.0221 17.5649 52.9813C17.4834 52.8591 17.3612 52.7776 17.2797 52.6962C17.239 52.6554 17.239 52.6554 17.1983 52.6147C17.1168 52.5332 17.076 52.4925 16.9946 52.411L16.9538 52.3702C16.0575 51.474 15.0798 50.7814 14.3872 50.2925C14.2242 50.1703 14.0613 50.0888 13.9391 50.0073C13.7761 50.2925 13.5724 50.5777 13.3687 50.8629C13.328 50.9036 13.328 50.9443 13.2872 50.9443C13.0835 51.1888 12.8798 51.474 12.6354 51.7184C12.1465 52.248 11.6169 52.8184 11.0873 53.348C10.8836 53.511 10.7206 53.7147 10.5169 53.8776C10.3132 54.0406 10.1502 54.2443 9.94653 54.4072C9.74283 54.5702 9.57987 54.7739 9.37617 54.9369C9.00951 55.2628 8.64285 55.5887 8.27619 55.9146C7.90953 56.2405 7.58361 56.5257 7.25769 56.7702C6.93177 57.0553 6.64659 57.2998 6.40215 57.5035C6.40215 57.5035 6.40215 57.5035 6.36141 57.5035C6.27993 57.585 6.19845 57.6257 6.15771 57.6664C12.228 64.3071 18.0131 62.5552 19.3575 61.9849Z" fill="white"/>
<path d="M26.2016 35.7486L28.0757 38.2745C28.2794 38.5189 28.4423 38.7634 28.6053 39.0078L28.6868 39.13V39.6189V39.6597V41.493L36.4681 35.5042C35.7755 32.2042 33.7385 25.197 29.4608 21.3267L28.4016 23.16L28.2794 23.4044V23.4451L27.9127 24.0562L27.3423 24.9933L23.3091 31.9598C24.2054 33.1413 25.2239 34.4857 26.2016 35.7486Z" fill="white"/>
<path d="M10.1502 52.9411C10.5576 52.5337 10.965 52.167 11.3317 51.7596L11.3724 51.7189C11.5354 51.5559 11.6983 51.3522 11.8613 51.1893L11.902 51.1485C12.1465 50.8634 12.3502 50.6189 12.5539 50.3745C12.5539 50.3745 12.5539 50.3337 12.5946 50.3337C12.8798 49.9671 13.0835 49.6412 13.2464 49.356C13.2872 49.2745 13.3279 49.193 13.3687 49.1115C13.3687 49.1115 13.3687 49.1115 13.3687 49.0708L13.4501 48.8671V44.6301L12.0242 43.5302L11.0057 42.7561L2.97996 36.5636L2.08368 35.871L0.739258 34.8525V47.8893C1.92072 51.4745 6.15768 54.9374 7.0947 55.6707C7.99098 54.8966 9.1317 53.9189 10.1502 52.9411Z" fill="white"/>
<path d="M19.4389 28.0487L19.8463 27.5598L19.8871 27.6006L19.9278 27.5598L20.3352 28.0487C20.9871 28.8635 21.7611 29.882 22.6574 31.1042L26.6907 24.1377C25.1833 22.1007 23.3092 19.697 21.8833 17.8637C21.15 16.8859 20.4982 15.9897 19.9278 15.2563L19.8871 15.2971L19.8463 15.2563C19.276 15.9897 18.6241 16.8452 17.8908 17.823C16.4649 19.6563 14.5909 22.1007 13.0835 24.0969L17.1168 31.1042C18.013 29.882 18.7871 28.8635 19.4389 28.0487Z" fill="white"/>
<path d="M14.4281 49.1113C15.5281 49.8039 18.6243 51.8816 19.8872 54.5297C21.1094 51.8816 24.2057 49.8039 25.3057 49.1113V48.5002V46.4632V44.141L25.3871 44.0596L27.7501 42.267V39.9856V39.8226V39.4967C27.6278 39.3337 27.5056 39.1708 27.4241 39.0485V39.0078C27.2204 38.7226 26.976 38.3967 26.7316 38.1115L26.1205 37.2967C25.0612 35.8708 23.839 34.3227 22.7798 32.9375L21.3539 31.1042C20.8243 30.3709 20.3354 29.7598 19.8872 29.1895V29.2302L19.8465 29.1895C19.3984 29.7598 18.9095 30.4117 18.3799 31.1042L16.9947 32.9375C15.9355 34.3227 14.754 35.8708 13.654 37.2967L13.0429 38.1115C12.7985 38.4374 12.554 38.7634 12.3503 39.0485V39.0893C12.2281 39.2522 12.1466 39.3745 12.0244 39.5374V40.0263V40.067V42.3485L13.3281 43.3262L14.4688 44.2225V46.5447V49.1113H14.4281Z" fill="white"/>
<path d="M11.0055 39.6597V39.1708L11.0869 39.0486C11.1684 38.9263 11.2906 38.7634 11.4129 38.6004L13.1647 36.2782C14.2647 34.8523 15.4054 33.3042 16.4646 32.0005L14.835 29.1895L11.3721 23.2007L10.3129 21.3267C6.03518 25.197 3.95744 32.2042 3.22412 35.4634L11.0055 41.4522V39.6597V39.6597Z" fill="white"/>
<path d="M118.926 44.8332L120.271 46.1776C122.348 44.2221 122.348 43.8962 123.326 40.9221L121.534 40.311C120.637 42.9591 120.8 42.9999 118.926 44.8332Z" fill="white"/>
<path d="M125.282 41.289L128.459 46.0148L130.048 44.9963L126.871 40.2705L125.282 41.289Z" fill="white"/>
<path d="M127.115 15.541H121.859C119.863 15.541 118.233 17.1706 118.233 19.1669V19.2076V29.9222V32.2852V35.7888V35.8295C118.233 37.8258 119.863 39.4554 121.859 39.4554H127.115C129.111 39.4554 130.741 37.8258 130.741 35.8295V35.7888V19.2076V19.1669C130.741 17.1706 129.07 15.541 127.115 15.541ZM128.459 35.7888V35.8295C128.459 36.5629 127.889 37.174 127.115 37.174H121.859C121.126 37.174 120.556 36.5629 120.556 35.8295V35.7888V32.2852H128.459V35.7888ZM128.459 29.9222H120.556V25.0742H128.459V29.9222ZM128.459 19.2076V22.7113H120.556V19.2076V19.1669C120.556 18.4336 121.126 17.8225 121.859 17.8225H127.115C127.889 17.8225 128.459 18.4336 128.459 19.1669V19.2076Z" fill="white"/>
<path d="M150.092 38.8443V34.2407C150.092 31.9185 148.177 30.0037 145.855 30.0037H143.085V28.7408H150.703V26.4593H146.914V24.4631H150.133V22.1816H146.914V20.1854H150.703V17.9854H146.914V15.541H144.633V17.9854H138.848V15.541H136.566V17.9854H132.778V20.2669H136.566V22.2631H133.348V24.5446H136.566V26.5408H132.778V28.8223H140.763V30.0852H137.829C135.507 30.0852 133.592 32 133.592 34.3222V38.8443H131.311V41.1257H133.592L133.633 46.1367H135.915L135.874 41.1257H147.811V41.8591C147.811 42.9183 146.955 43.8146 145.855 43.8146H144.063V46.096H145.855C148.177 46.096 150.092 44.1812 150.092 41.8591V41.1257H152.17V38.8443H150.092ZM140.803 38.8443H135.955V36.9295H140.803V38.8443ZM140.803 34.6481H135.955V34.2407C135.955 33.1814 136.811 32.2852 137.911 32.2852H140.844V34.6481H140.803ZM138.889 20.2669H144.674V22.2631H138.889V20.2669ZM138.889 26.5001V24.5038H144.674V26.5001H138.889V26.5001ZM147.811 38.8443H143.126V36.9295H147.811V38.8443ZM147.811 34.6481H143.126V32.3259H145.896C146.955 32.3259 147.851 33.1814 147.851 34.2814V34.6481H147.811Z" fill="white"/>
<path d="M113.508 34.4857H104.341H100.186V33.5894V31.8783V31.1042H107.478C109.8 31.1042 111.715 29.1895 111.715 26.8673V19.86C111.715 17.5378 109.8 15.623 107.478 15.623H90.6118C88.2897 15.623 86.3749 17.5378 86.3749 19.86V26.908C86.3749 29.2302 88.2897 31.145 90.6118 31.145H97.9043V32.2042V33.6301V34.5264H93.7895H84.623V36.8078H93.7081C91.3859 40.1893 88.2897 42.8374 85.3971 44.304L86.4971 46.3003C90.1637 44.3855 93.7895 41.167 96.4376 36.8078H97.2524H97.945V40.8818V46.2595H100.226V36.7671H100.838H102.345L111.593 46.178L113.182 44.5892L105.482 36.7671H113.508V34.4857V34.4857ZM100.186 17.9045H107.478C108.537 17.9045 109.434 18.76 109.434 19.86V22.2637H100.186V17.9045V17.9045ZM100.186 24.5451H109.434V26.908C109.434 27.9673 108.578 28.8635 107.478 28.8635H100.186V24.5451ZM97.9043 28.8228H90.6118C89.5526 28.8228 88.6563 27.9673 88.6563 26.8673V24.5044H97.8635V28.8228H97.9043ZM97.9043 22.2637H88.697V19.86C88.697 18.8008 89.5526 17.9045 90.6526 17.9045H97.945V22.2637H97.9043Z" fill="white"/>
<path d="M50.1567 30.411C50.1567 37.9479 50.0753 39.7812 49.2197 45.5256L51.5012 45.8922C52.3567 40.1479 52.4382 38.2739 52.4382 30.411V29.0259H50.1567V30.411Z" fill="white"/>
<path d="M56.6751 15.7041H54.3937L54.4344 24.0151H49.2197V26.2965H54.4344V46.1776H56.7159V26.2965H61.8491V24.0151H56.7159L56.6751 15.7041Z" fill="white"/>
<path d="M58.6309 28.9448L58.7123 45.689H61.0345L60.953 28.9448H58.6309Z" fill="white"/>
<path d="M69.4677 16.0303L67.1863 15.7451C66.29 22.5487 64.6604 27.1931 62.4604 32.2856L64.5382 33.1818C66.8604 27.8856 68.5307 23.0376 69.4677 16.0303Z" fill="white"/>
<path d="M79.1641 32.4074L74.479 15.541L72.2383 16.1929L76.9641 33.0185L79.1641 32.4074Z" fill="white"/>
<path d="M74.5191 37.7036L75.8635 42.3073L67.2673 43.4072L71.7487 28.9445L69.5488 28.252L64.7415 43.7332L63.4785 43.8961L63.7637 46.1776L76.4746 44.548V44.5072L76.9635 46.1368L79.1634 45.4442L76.7598 37.0518L74.5191 37.7036Z" fill="white"/>
<path d="M164.636 32.7746L163.984 33.0598V26.2154H164.799H167.284V23.934H167.244H163.984V15.623H161.703V23.934H160.766H158.892L159.788 19.4933L157.588 19.0859L156.122 26.2154H160.359H161.703V34.0375L160.684 34.4857L155.47 36.7264L156.407 38.8041L160.684 37.0115L161.703 36.5634V46.0558H163.984V35.5856L164.555 35.3412L168.547 33.5894L167.61 31.5116L164.636 32.7746Z" fill="white"/>
<path d="M181.666 20.674H172.255L174.21 16.1111L172.092 15.2148L167.855 25.1147L169.933 26.0109L171.236 22.9962H172.581C171.44 32.8553 170.788 36.3589 168.833 42.6329L170.992 43.2847C173.07 36.807 173.762 33.059 174.903 22.9962H178.488C177.673 32.8145 176.084 39.0885 174.251 45.4032L176.451 46.055C178.366 39.5774 179.955 33.1404 180.81 22.9962H181.666C182.725 22.9962 183.581 23.8517 183.581 24.911L183.377 41.5329C183.377 42.5921 182.521 43.4477 181.462 43.4477H178.896V45.7291H181.462C183.784 45.7291 185.699 43.8143 185.699 41.5329L185.903 24.911C185.903 22.6295 183.988 20.674 181.666 20.674Z" fill="white"/>
<path d="M50.1975 63.4924C49.7493 65.0813 49.3827 65.9368 49.0567 66.0183C48.9345 66.0591 48.7716 66.0591 48.6493 66.0183C48.5271 65.9368 48.4049 65.8554 48.3642 65.6924C48.3234 65.5294 48.3234 65.3665 48.4049 65.2035C49.3419 63.248 49.7901 61.0073 49.7493 58.5222V56.6074H48.9753C48.8123 56.6074 48.6493 56.5666 48.5679 56.4444C48.4456 56.3222 48.4049 56.2 48.4049 56.037C48.4049 55.8741 48.4456 55.7518 48.5679 55.6296C48.6901 55.5074 48.8123 55.4667 48.9753 55.4667H50.89C50.89 54.6111 50.9308 54.1222 51.0123 54C51.1345 53.8778 51.2567 53.8371 51.4197 53.8371C51.5826 53.8371 51.7048 53.8778 51.8271 54C51.9493 54.1222 51.99 54.2445 51.99 54.4074C51.99 54.7741 51.99 55.1 51.99 55.4667H53.9455C54.1085 55.4667 54.2307 55.5074 54.3529 55.5889C54.4752 55.7111 54.5159 55.8333 54.5159 55.9963C54.5159 56.1592 54.4752 56.2815 54.3529 56.4037C54.2307 56.5259 54.1085 56.5666 53.9455 56.5666H50.8493V58.0333H52.4789C52.8456 58.0333 53.1307 58.1555 53.3752 58.3185C53.5789 58.5222 53.6604 58.7666 53.6604 59.0518C53.6604 61.4554 53.5789 63.2073 53.4567 64.348C53.2937 65.122 53.0493 65.6109 52.7233 65.8146C52.4789 65.9776 52.1937 66.0591 51.7456 66.0591C51.3382 66.0998 51.0123 66.0591 50.6863 65.9368C50.4826 65.8554 50.3197 65.7739 50.2382 65.6109C50.1567 65.448 50.1567 65.285 50.1567 65.0813C50.2789 64.6739 50.5641 64.5517 51.0123 64.6739C51.5011 64.8369 51.8271 64.8369 52.0308 64.7146C52.2752 64.5109 52.4382 63.7369 52.4789 62.3517C52.5196 61.4554 52.5196 60.5999 52.5196 59.8258C52.5196 59.5814 52.4789 59.3777 52.3567 59.2962C52.2345 59.174 52.0715 59.1333 51.8678 59.1333H50.8086C50.7271 60.9258 50.4826 62.3517 50.1975 63.4924ZM55.2085 58.6851C54.9233 59.174 54.7196 59.4592 54.5566 59.4999C54.3937 59.4999 54.2715 59.4999 54.1492 59.4184C54.027 59.337 53.9048 59.2147 53.9048 59.0518C53.8641 58.8888 53.9048 58.7259 53.9863 58.5629C54.7196 57.2185 55.0863 55.8333 55.1677 54.3667C55.1677 54.2037 55.2492 54.0408 55.3714 53.9593C55.4937 53.8371 55.6159 53.7963 55.7788 53.8371C55.9418 53.8371 56.064 53.9185 56.1862 54C56.2677 54.1222 56.3085 54.2852 56.3085 54.4889C56.2677 54.8556 56.227 55.1815 56.1862 55.5074H60.2602C60.4232 55.5074 60.5454 55.5481 60.6676 55.6296C60.7899 55.7518 60.8306 55.8741 60.8306 56.037C60.8306 56.2 60.7899 56.3222 60.6676 56.4444C60.5454 56.5666 60.4232 56.6074 60.2602 56.6074H59.6084C59.6084 58.8073 59.1195 60.8443 58.0603 62.6776C58.7121 63.5332 59.5269 64.3072 60.4639 64.9998C60.6269 65.122 60.7084 65.285 60.7491 65.448C60.7899 65.6109 60.7491 65.7739 60.6269 65.8961C60.5047 66.0183 60.3825 66.0998 60.2195 66.1405C60.0973 66.1405 59.9751 66.0998 59.8528 66.0591C58.9973 65.4072 58.1825 64.5924 57.4084 63.6147C57.1233 63.9813 56.7159 64.348 56.2677 64.7961C55.2085 65.7739 54.5159 66.222 54.2307 66.1405C54.0678 66.0998 53.9455 66.0183 53.8641 65.8961C53.7418 65.7331 53.7418 65.6109 53.7418 65.448C53.7826 65.285 53.8641 65.1628 54.027 65.0813C55.127 64.3072 56.064 63.5332 56.7566 62.7184C55.9418 61.5369 55.4529 60.1518 55.2085 58.6851ZM58.4677 56.6074H56.1455C56.1455 57.6666 56.1862 58.3185 56.2677 58.4814C56.4307 59.7851 56.7973 60.8443 57.3677 61.6999C57.8158 60.8851 58.101 59.9888 58.3047 59.0925C58.4269 58.3999 58.5084 57.5444 58.4677 56.6074Z" fill="white"/>
<path d="M72.4419 59.7036C71.6679 62.148 70.242 64.022 68.1642 65.4072C67.3494 65.8961 66.8198 66.0998 66.6161 66.0183C66.4531 65.9776 66.3717 65.8961 66.2494 65.7331C66.168 65.5702 66.168 65.4072 66.168 65.285C66.2902 64.9998 66.4124 64.8368 66.6161 64.8368C69.3457 63.4924 71.016 61.1702 71.6271 57.9518H67.0642C66.9013 57.9518 66.7383 57.911 66.6161 57.7888C66.4939 57.6666 66.4531 57.5444 66.4531 57.3814C66.4531 57.2185 66.4939 57.0962 66.6161 56.974C66.7383 56.8518 66.8605 56.8111 67.0642 56.8111H71.7493C71.7493 56.5666 71.7901 56.3629 71.7901 56.1592V54.6518C71.7901 54.4481 71.8308 54.2852 71.953 54.163C72.0753 54.0407 72.1975 54 72.4012 54C72.5641 54 72.7271 54.0815 72.8493 54.163C72.9715 54.2852 73.0123 54.4481 73.0123 54.6926V56.2C73.0123 56.4444 72.9715 56.6481 72.9715 56.8518H77.7381C77.9011 56.8518 78.064 56.8925 78.1455 57.0148C78.2677 57.137 78.3085 57.2592 78.3085 57.4222C78.3085 57.5851 78.2677 57.7073 78.1455 57.8296C78.0233 57.9518 77.9011 57.9925 77.7381 57.9925H73.1345C73.1345 58.0333 73.1345 58.074 73.1345 58.1147C73.4197 59.4592 73.9086 60.5999 74.6011 61.6184C75.4974 62.9221 76.6789 64.0628 78.227 64.9998C78.39 65.122 78.5122 65.285 78.5529 65.4479C78.5937 65.6109 78.5529 65.7739 78.4307 65.9368C78.3085 66.0998 78.1863 66.1813 78.0233 66.222C77.8603 66.2627 77.6566 66.1813 77.4937 66.059C74.8863 64.185 73.216 62.0258 72.4419 59.6221C72.4827 59.5814 72.4827 59.6221 72.4419 59.7036Z" fill="white"/>
<path d="M84.7858 60.4775C84.6228 60.4775 84.5006 60.4367 84.3784 60.3552C84.2154 60.233 84.1339 60.1108 84.1339 59.9886C84.0932 59.8256 84.1339 59.6627 84.2562 59.5404C85.2747 57.9923 85.9265 56.2812 86.1302 54.4479C86.1709 54.2442 86.2524 54.122 86.3746 54.0405C86.4968 53.9591 86.6191 53.9183 86.782 53.9183C86.945 53.9591 87.0672 54.0405 87.1487 54.122C87.2302 54.2442 87.2709 54.4072 87.2709 54.6109C87.0672 55.7924 86.8228 56.8109 86.4969 57.5849C86.4969 57.6257 86.4969 57.6664 86.4969 57.6664C86.4969 60.3552 86.4969 63.0033 86.4969 65.6922C86.4969 65.8551 86.4561 66.0181 86.3339 66.1403C86.2117 66.2625 86.0895 66.3033 85.9265 66.3033C85.7635 66.3033 85.6413 66.2625 85.5191 66.1403C85.3969 66.0181 85.3561 65.8959 85.3561 65.6922C85.3561 63.7367 85.3561 61.8219 85.3561 59.9071C85.1117 60.2738 84.908 60.4775 84.7858 60.4775ZM89.6746 56.5257C89.5524 56.8923 89.4301 57.2183 89.2672 57.5034C88.5746 58.9701 88.045 59.7441 87.6783 59.8256C87.5153 59.8256 87.3931 59.7849 87.2709 59.7034C87.1487 59.5812 87.0672 59.459 87.0672 59.3367C87.0672 59.1738 87.1079 59.0108 87.1894 58.8886C88.2079 57.4627 88.8598 55.9961 89.1042 54.4072C89.1449 54.2035 89.2264 54.0813 89.3486 53.9998C89.4709 53.9183 89.5931 53.8776 89.756 53.9183C89.919 53.9591 90.0412 54.0405 90.1227 54.122C90.2042 54.2442 90.2042 54.4072 90.2042 54.6109C90.1227 54.8961 90.082 55.1405 90.0005 55.385H95.2152C95.4189 55.3442 95.5819 55.385 95.7856 55.4257C95.9893 55.5072 96.1115 55.6294 96.2337 55.7516C96.4374 56.0368 96.4781 56.5257 96.3559 57.1368C96.193 57.9923 95.9485 58.4812 95.7041 58.6034C95.5411 58.6442 95.4189 58.6442 95.2967 58.6442C95.1337 58.6034 95.0115 58.5219 94.93 58.359C94.8893 58.2368 94.8485 58.0738 94.93 57.9108C95.1745 57.5034 95.2967 57.1775 95.3374 56.9331C95.3782 56.8109 95.3782 56.6886 95.2967 56.6479C95.256 56.5664 95.1745 56.5257 95.0522 56.5257H92.7708V64.8774C92.7708 65.3663 92.5671 65.7737 92.1597 66.0181C91.8745 66.1811 91.3857 66.2218 90.6116 66.0996C89.8783 65.9366 89.4709 65.7329 89.3486 65.4885C89.3079 65.3663 89.3079 65.2033 89.3486 65.0811C89.4301 64.9181 89.5116 64.8366 89.6338 64.7552C89.7968 64.7144 89.9597 64.7144 90.1227 64.7552C90.6523 64.9589 91.019 65.0403 91.2227 65.0403C91.3449 65.0403 91.4264 64.9996 91.5079 64.9181C91.5894 64.8366 91.6301 64.7144 91.6301 64.5515V56.5257H89.6746ZM89.6338 58.3997C89.756 58.3182 89.8783 58.3182 90.0412 58.3182C90.2042 58.359 90.3264 58.4405 90.4079 58.5627C90.4894 58.6849 90.5301 58.8479 90.4894 59.0108C90.1635 60.5589 89.5524 62.3515 88.6561 64.3885C88.5746 64.5515 88.4524 64.6737 88.3302 64.7552C88.1672 64.7959 88.045 64.7959 87.882 64.7552C87.719 64.6737 87.6376 64.5922 87.5968 64.4292C87.5561 64.2663 87.5561 64.1033 87.6376 63.9404C88.5339 61.8626 89.1042 60.1515 89.3894 58.8479C89.4301 58.6442 89.5116 58.4812 89.6338 58.3997ZM93.7486 58.7256C93.7893 58.6034 93.9115 58.4812 94.0745 58.3997C94.2375 58.359 94.4004 58.359 94.5226 58.3997C94.6856 58.4812 94.7671 58.6034 94.8485 58.8071C95.5819 60.9663 96.0708 62.7182 96.3152 64.0626C96.3559 64.2663 96.3152 64.4292 96.2337 64.5515C96.1522 64.6737 96.03 64.7552 95.867 64.7959C95.7041 64.8366 95.5411 64.7959 95.4189 64.7144C95.2967 64.5922 95.2152 64.47 95.1745 64.2663C94.8486 62.5552 94.3597 60.8849 93.7893 59.2145C93.7078 59.0516 93.6671 58.8886 93.7486 58.7256Z" fill="white"/>
<path d="M104.911 63.0034H103.037C102.874 63.0034 102.752 62.9626 102.671 62.8811C102.589 62.7996 102.548 62.6774 102.548 62.5145C102.548 62.3922 102.589 62.27 102.671 62.1478C102.752 62.0663 102.874 62.0256 103.037 62.0256H104.911V60.7219H102.874C102.711 60.7219 102.589 60.6812 102.508 60.5997C102.426 60.5182 102.385 60.396 102.385 60.233C102.385 60.1108 102.426 59.9886 102.508 59.8664C102.589 59.7849 102.711 59.7442 102.874 59.7442H103.771L103.526 58.2368H102.63C102.467 58.2368 102.345 58.196 102.263 58.1146C102.182 58.0331 102.141 57.9109 102.141 57.7479C102.141 57.6257 102.182 57.5035 102.263 57.3812C102.345 57.2998 102.467 57.259 102.63 57.259H104.097C104.097 56.3627 104.097 55.4665 104.097 54.6109C104.097 54.448 104.137 54.3257 104.219 54.2443C104.3 54.1628 104.422 54.122 104.585 54.122C104.708 54.122 104.83 54.1628 104.952 54.2443C105.074 54.3257 105.115 54.4887 105.115 54.6517C105.115 55.5479 105.115 56.4035 105.115 57.2998H105.971C105.971 56.4035 105.971 55.5072 105.971 54.6517C105.971 54.4887 106.011 54.3665 106.093 54.285C106.174 54.2035 106.296 54.1628 106.459 54.1628C106.582 54.1628 106.704 54.2035 106.826 54.285C106.948 54.3665 106.989 54.5294 106.989 54.6924C106.989 55.5887 106.989 56.4442 106.989 57.3405H108.293C108.456 57.3405 108.578 57.3812 108.659 57.4627C108.741 57.5442 108.782 57.6664 108.782 57.8294C108.782 57.9516 108.741 58.0738 108.659 58.196C108.578 58.3183 108.456 58.359 108.293 58.359H107.519L107.071 59.6219H108.089C108.252 59.6219 108.374 59.6627 108.456 59.7442C108.537 59.8256 108.578 59.9478 108.578 60.1108C108.578 60.233 108.537 60.3552 108.456 60.4775C108.374 60.5997 108.252 60.6404 108.089 60.6404H106.052V61.9441H107.722C107.885 61.9441 108.008 61.9849 108.089 62.0663C108.171 62.1478 108.211 62.27 108.211 62.433C108.211 62.5552 108.171 62.6774 108.089 62.7997C108.008 62.9219 107.885 62.9626 107.722 62.9626H106.052V64.307C106.745 64.1033 107.315 63.8996 107.722 63.7367C107.885 63.6552 108.048 63.6552 108.171 63.6959C108.293 63.7367 108.415 63.8589 108.456 64.0219C108.496 64.1848 108.496 64.307 108.496 64.47C108.456 64.5922 108.333 64.7144 108.171 64.7552C107.111 65.2033 105.441 65.6514 103.078 66.0181C102.752 66.0588 102.508 66.0588 102.385 65.9774C102.263 65.8551 102.182 65.7329 102.141 65.57C102.1 65.407 102.141 65.244 102.222 65.1218C102.304 64.9996 102.467 64.9181 102.63 64.9181C103.363 64.8366 104.097 64.7144 104.871 64.5922V63.0034H104.911ZM102.141 54.8554C102.141 54.7331 102.222 54.6109 102.345 54.5294C102.467 54.448 102.589 54.4072 102.752 54.448C102.915 54.4887 102.997 54.5702 103.119 54.6924C103.689 55.5479 103.893 56.1183 103.771 56.4035C103.689 56.5257 103.608 56.6479 103.445 56.6887C103.282 56.7294 103.159 56.7294 103.037 56.6887C102.915 56.6072 102.793 56.485 102.752 56.322C102.548 55.8739 102.385 55.5072 102.222 55.2628C102.141 55.1405 102.1 55.0183 102.141 54.8554ZM106.011 59.6219L106.459 58.1146H104.545L104.789 59.6219H106.011ZM108.333 54.4887C108.456 54.448 108.578 54.448 108.741 54.4887C108.863 54.5294 108.985 54.6109 109.026 54.7331C109.067 54.8554 109.067 55.0183 109.026 55.1813C108.904 55.5479 108.659 55.9553 108.374 56.4442C108.293 56.6072 108.171 56.6887 108.048 56.6887C107.926 56.7294 107.763 56.6887 107.641 56.6072C107.519 56.5257 107.437 56.4035 107.437 56.2813C107.437 56.1183 107.478 55.9961 107.559 55.8739C107.804 55.4665 108.008 55.0998 108.089 54.8554C108.089 54.6517 108.171 54.5294 108.333 54.4887ZM109.474 57.5849C109.311 57.5849 109.148 57.5442 109.067 57.422C108.985 57.3405 108.945 57.1775 108.945 57.0146C108.945 56.8516 108.985 56.7294 109.067 56.6479C109.189 56.5257 109.311 56.485 109.474 56.485H112.122V54.3665C112.122 54.1628 112.163 54.0406 112.285 53.9183C112.407 53.7961 112.53 53.7554 112.693 53.7554C112.856 53.7554 112.978 53.7961 113.1 53.9183C113.222 54.0406 113.263 54.2035 113.263 54.3665V56.485H113.956C114.119 56.485 114.241 56.5257 114.363 56.6072C114.444 56.6887 114.485 56.8516 114.485 57.0146C114.485 57.1775 114.444 57.2998 114.363 57.3812C114.282 57.5035 114.119 57.5442 113.956 57.5442H113.263V64.8367C113.263 65.3255 113.059 65.7329 112.652 65.9774C112.448 66.1403 112.204 66.2218 111.919 66.2218C110.452 66.1811 109.637 65.9774 109.474 65.6107C109.433 65.4477 109.433 65.3255 109.433 65.2033C109.474 65.0403 109.596 64.9181 109.719 64.8774C109.841 64.7959 110.004 64.7959 110.208 64.8774C110.9 65.0404 111.389 65.1626 111.633 65.1626C111.796 65.1626 111.919 65.1218 112 64.9996C112.082 64.9181 112.122 64.7959 112.122 64.633V57.5849H109.474ZM109.108 58.8071C109.148 58.6849 109.23 58.5627 109.393 58.4812C109.515 58.4405 109.678 58.4405 109.8 58.4405C109.963 58.4812 110.045 58.6034 110.126 58.7664C110.167 58.8479 110.207 58.9294 110.248 59.0108C111.022 61.0886 111.348 62.2293 111.226 62.4737C111.145 62.596 111.063 62.6774 110.9 62.7182C110.778 62.7589 110.615 62.7182 110.493 62.6774C110.37 62.596 110.289 62.433 110.248 62.27C109.922 61.0071 109.596 59.9886 109.23 59.1738C109.067 59.0923 109.067 58.9294 109.108 58.8071Z" fill="white"/>
<path d="M123.815 61.9849C122.104 62.8811 121.044 63.2478 120.637 63.0034C120.515 62.9219 120.433 62.7997 120.392 62.6367C120.352 62.4737 120.392 62.3108 120.474 62.2293C120.555 62.1071 120.678 62.0256 120.881 61.9441C122.755 61.4145 124.426 60.5182 125.892 59.2553C125.77 59.0923 125.648 58.9294 125.526 58.7664C124.874 59.1738 124.263 59.5405 123.733 59.7849C122.063 60.559 121.044 60.8034 120.678 60.5997C120.555 60.5182 120.474 60.396 120.474 60.233C120.433 60.0701 120.474 59.9479 120.555 59.8256C120.637 59.7034 120.8 59.6219 120.963 59.5812C122.47 59.2553 123.855 58.6442 125.078 57.8701H122.552C122.389 57.8701 122.226 57.8294 122.144 57.7072C122.063 57.6257 122.022 57.4627 122.022 57.2998C122.022 57.1368 122.063 57.0146 122.144 56.9331C122.267 56.8109 122.389 56.7701 122.552 56.7701H129.803C129.966 56.7701 130.089 56.8109 130.211 56.8924C130.292 56.9738 130.333 57.1368 130.333 57.2998C130.333 57.4627 130.292 57.5849 130.211 57.6664C130.129 57.7886 129.966 57.8294 129.803 57.8294H126.829C126.748 57.9109 126.626 57.9516 126.544 58.0331C126.87 58.4405 127.155 58.9294 127.4 59.4182C128.215 61.5775 129.763 63.37 132.126 64.7552C132.329 64.8774 132.411 64.9996 132.452 65.1626C132.492 65.3255 132.452 65.4885 132.37 65.6107C132.248 65.7737 132.126 65.8552 131.963 65.8959C131.8 65.9366 131.637 65.8959 131.433 65.7737C130.17 65.0403 129.029 63.9404 127.929 62.5145C127.929 63.207 127.848 63.8996 127.685 64.5107C127.522 65.0403 127.359 65.407 127.155 65.57C126.911 65.7737 126.666 65.9366 126.422 66.0181C126.137 66.0996 125.811 66.1403 125.444 66.1403C125.078 66.0996 124.548 65.9366 123.774 65.6922C123.611 65.6107 123.489 65.5292 123.407 65.3663C123.366 65.2033 123.366 65.0811 123.407 64.9181C123.57 64.5515 123.815 64.4292 124.181 64.5515C125.037 64.7552 125.566 64.8366 125.892 64.7959C126.218 64.7552 126.463 64.5515 126.585 64.2256C126.789 63.6145 126.87 62.9219 126.829 62.1478C125.77 62.9626 124.792 63.6145 123.937 64.0626C121.981 65.0811 120.8 65.4885 120.352 65.2441C120.23 65.1626 120.148 65.0404 120.107 64.8774C120.067 64.7144 120.107 64.5515 120.189 64.47C120.27 64.307 120.392 64.2255 120.596 64.1848C122.918 63.533 124.915 62.433 126.707 60.9256C126.666 60.6812 126.585 60.4775 126.503 60.2738C126.463 60.1923 126.422 60.1515 126.422 60.1108C125.403 61.0071 124.548 61.5775 123.815 61.9849ZM125.729 53.9183C125.852 53.7961 125.974 53.7554 126.137 53.7554C126.3 53.7554 126.422 53.7961 126.544 53.9183C126.666 54.0406 126.707 54.3665 126.707 54.9368H131.189C131.352 54.9368 131.555 54.9776 131.718 55.0591C131.881 55.1813 131.963 55.3035 132.044 55.4665C132.289 55.9553 132.166 56.7294 131.718 57.7886C131.637 57.9516 131.514 58.0738 131.392 58.1146C131.27 58.1553 131.148 58.1553 130.985 58.1146C130.659 57.9516 130.577 57.7072 130.7 57.3405C130.944 56.7701 131.026 56.3627 130.985 56.1998C130.944 56.0368 130.822 55.9553 130.7 55.9961H121.737C121.655 55.9961 121.574 56.0368 121.492 56.1183C121.411 56.1998 121.37 56.2813 121.37 56.3627V57.5442C121.37 57.7072 121.329 57.8701 121.207 57.9923C121.085 58.0738 120.963 58.1146 120.841 58.1146C120.678 58.1146 120.555 58.0331 120.474 57.9516C120.352 57.8294 120.311 57.7072 120.311 57.5442V55.9146C120.311 55.6702 120.392 55.4257 120.596 55.222C120.8 55.0183 121.044 54.9368 121.289 54.9368H125.566C125.566 54.3665 125.607 54.0406 125.729 53.9183ZM130.292 58.2775C130.415 58.2775 130.537 58.3183 130.7 58.3997C130.822 58.522 130.903 58.6442 130.903 58.7664C130.903 58.9294 130.863 59.0516 130.74 59.1738C130.292 59.7034 129.722 60.233 128.948 60.8441C128.785 60.9256 128.663 60.9664 128.54 60.9664C128.378 60.9256 128.255 60.8849 128.174 60.7627C128.092 60.6404 128.052 60.5182 128.052 60.3553C128.092 60.1923 128.174 60.0701 128.296 59.9479C129.029 59.3775 129.559 58.8886 129.885 58.4812C130.007 58.3997 130.129 58.3182 130.292 58.2775Z" fill="white"/>
<path d="M139.052 65.8555C138.807 65.8555 138.644 65.774 138.522 65.611C138.359 65.4073 138.278 65.2036 138.318 64.9592V56.4853C138.318 56.2816 138.4 56.0779 138.522 55.9557C138.685 55.7927 138.848 55.7112 139.052 55.7112H139.867V55.752C140.315 54.5298 140.559 53.9594 140.6 53.9594C140.722 53.8779 140.844 53.8779 141.007 53.8779C141.17 53.9187 141.252 54.0001 141.374 54.1224C141.455 54.2446 141.455 54.4075 141.415 54.6112C141.374 54.7742 141.293 55.0186 141.17 55.3446C141.13 55.4668 141.048 55.589 141.048 55.752H142.352C142.637 55.752 142.841 55.8334 143.044 55.9964C143.207 56.1594 143.289 56.3223 143.289 56.526V64.9185C143.289 65.1629 143.207 65.3666 143.004 65.5703C142.841 65.7333 142.596 65.8147 142.392 65.8555H139.052ZM142.107 59.9889V57.2593C142.107 57.0964 142.067 57.0149 142.026 56.9334C141.944 56.8519 141.822 56.8112 141.659 56.8112H139.826C139.663 56.8112 139.541 56.8519 139.5 56.9334C139.418 57.0149 139.378 57.1371 139.378 57.3001V60.0297H142.107V59.9889ZM139.418 61.1296V64.2666C139.418 64.3888 139.459 64.5111 139.541 64.5925C139.622 64.674 139.744 64.7148 139.867 64.7148H141.7C141.863 64.7148 141.944 64.674 142.026 64.5925C142.067 64.5111 142.107 64.3888 142.148 64.2666V61.1296H139.418ZM143.941 58.726C143.818 58.7667 143.655 58.726 143.533 58.6445C143.37 58.5223 143.289 58.4001 143.289 58.2778C143.248 58.1149 143.289 57.9927 143.411 57.8297C144.104 56.7705 144.47 55.6297 144.552 54.4075C144.592 54.2038 144.674 54.0816 144.755 54.0001C144.878 53.9187 145 53.8779 145.163 53.8779C145.326 53.9187 145.448 53.9594 145.529 54.0816C145.611 54.2038 145.652 54.3668 145.652 54.5705C145.611 54.8557 145.529 55.1409 145.489 55.3853H148.666C148.911 55.3853 149.115 55.426 149.318 55.5075C149.522 55.589 149.644 55.752 149.685 55.9149C149.766 56.1594 149.807 56.4038 149.807 56.6482C149.766 60.3556 149.644 62.8 149.4 63.9814C149.115 64.9185 148.748 65.5296 148.218 65.8555C147.892 66.0592 147.403 66.1407 146.752 66.1407C146.1 66.1407 145.448 66.0184 144.837 65.774C144.633 65.6925 144.511 65.611 144.429 65.4888C144.389 65.3259 144.348 65.1629 144.429 65.0407C144.552 64.7148 144.796 64.5925 145.204 64.674C146.507 65.0407 147.363 65.0814 147.729 64.7962C148.015 64.5925 148.218 64.3074 148.341 63.8185C148.544 63.2481 148.666 61.2926 148.707 57.9927C148.707 57.1779 148.666 56.7297 148.585 56.6482C148.503 56.5668 148.381 56.526 148.218 56.526H145.244C144.755 57.8704 144.307 58.6038 143.941 58.726ZM145.041 58.1964C145.081 58.0741 145.163 57.9519 145.326 57.8704C145.489 57.8297 145.611 57.789 145.733 57.8297C145.896 57.8704 145.978 57.9927 146.1 58.1556C147.159 60.8037 147.607 62.3111 147.485 62.5963C147.404 62.7185 147.322 62.8 147.159 62.8407C146.996 62.8815 146.874 62.8815 146.752 62.8C146.629 62.7185 146.548 62.5963 146.466 62.3926C146.181 61.3333 145.733 60.0704 145.122 58.6445C145 58.4815 144.959 58.3186 145.041 58.1964Z" fill="white"/>
<path d="M159.381 60.7628C159.381 60.9257 159.34 61.0887 159.218 61.1702C159.136 61.2517 159.014 61.3331 158.851 61.3331C158.688 61.3331 158.566 61.2924 158.485 61.2109C158.362 61.0887 158.322 60.9665 158.322 60.7628C158.322 59.8258 158.322 58.9295 158.322 58.0332C157.303 59.6221 156.611 60.3961 156.203 60.3961C156.04 60.3961 155.918 60.3554 155.796 60.2332C155.714 60.1109 155.633 59.9887 155.633 59.8665C155.633 59.7035 155.714 59.5813 155.837 59.4591C156.774 58.5628 157.507 57.6258 158.077 56.6073H156.651C156.488 56.6073 156.325 56.5666 156.244 56.4443C156.162 56.3629 156.122 56.1999 156.122 56.0369C156.122 55.874 156.162 55.7518 156.244 55.6703C156.366 55.5481 156.488 55.5073 156.651 55.5073H158.281C158.281 55.1407 158.281 54.774 158.281 54.4481C158.281 54.2851 158.322 54.1222 158.403 54.0407C158.485 53.9592 158.648 53.9185 158.811 53.9185C158.973 53.9185 159.096 53.9592 159.177 54.0407C159.299 54.1629 159.34 54.2851 159.34 54.4481C159.34 54.8147 159.34 55.1407 159.34 55.5073H160.807C160.97 55.5073 161.092 55.5481 161.214 55.6295C161.296 55.711 161.336 55.874 161.336 56.0369C161.336 56.1999 161.296 56.3221 161.214 56.4036C161.133 56.5258 160.97 56.5666 160.807 56.5666H159.422C160.196 57.3406 160.807 58.0332 161.296 58.6443C161.377 58.7665 161.418 58.8887 161.418 59.0517C161.377 59.1739 161.336 59.2961 161.214 59.3776C161.092 59.4591 160.97 59.4591 160.807 59.4591C160.644 59.4591 160.562 59.3776 160.44 59.2147C160.155 58.8073 159.748 58.3184 159.299 57.7888C159.381 58.848 159.381 59.785 159.381 60.7628ZM157.181 61.9442C157.303 61.8628 157.425 61.8628 157.588 61.8628C157.751 61.9035 157.874 61.9442 157.955 62.0665C158.199 62.4331 157.955 63.3294 157.303 64.796C156.936 65.5294 156.651 65.896 156.407 65.896C156.285 65.9368 156.122 65.896 155.999 65.8145C155.877 65.7331 155.796 65.6108 155.796 65.4479C155.796 65.2849 155.837 65.122 155.918 64.9997C156.407 64.2664 156.774 63.3701 156.977 62.3516C157.018 62.1479 157.059 62.0257 157.181 61.9442ZM159.177 61.6591C159.299 61.5368 159.422 61.4961 159.585 61.4961C159.748 61.4961 159.87 61.5368 159.992 61.6591C160.114 61.7813 160.155 61.9442 160.155 62.1072V64.022C160.155 64.2257 160.196 64.4294 160.318 64.5923C160.481 64.8775 161.133 64.9997 162.273 64.9997C163.088 64.9997 163.618 64.9183 163.903 64.7553C164.107 64.5923 164.229 64.2664 164.27 63.7775C164.27 63.5738 164.31 63.4516 164.392 63.3294C164.473 63.2072 164.636 63.1257 164.799 63.1257C164.962 63.1257 165.084 63.1664 165.207 63.2479C165.329 63.3701 165.41 63.4924 165.41 63.6961C165.329 64.6331 165.207 65.2034 165.044 65.3664C164.514 65.8553 163.618 66.0997 162.273 66.0997C161.418 66.0997 160.725 66.0182 160.277 65.9368C159.951 65.8553 159.707 65.6923 159.544 65.4886C159.218 65.0812 159.055 64.5923 159.096 64.0627V62.0665C159.055 61.9035 159.096 61.7813 159.177 61.6591ZM161.173 61.7405C161.173 61.6183 161.255 61.4961 161.377 61.3739C161.499 61.2924 161.662 61.2517 161.785 61.2517C161.948 61.2924 162.07 61.3739 162.192 61.5368C162.966 62.759 163.292 63.5331 163.17 63.8183C163.129 63.9405 163.007 64.0627 162.885 64.1442C162.722 64.1849 162.599 64.1849 162.477 64.1442C162.314 64.0627 162.233 63.9405 162.151 63.7775C161.866 63.085 161.581 62.5553 161.296 62.1887C161.173 62.0665 161.173 61.9035 161.173 61.7405ZM162.436 61.4146C162.192 61.4146 162.029 61.3331 161.948 61.1702C161.785 60.9665 161.744 60.7628 161.744 60.5591V55.0184C161.744 54.8147 161.825 54.6518 161.948 54.5296C162.11 54.3666 162.273 54.3259 162.436 54.3259H166.307C166.551 54.3259 166.755 54.4073 166.918 54.5296C167.04 54.6518 167.121 54.8147 167.121 55.0184V60.5591C167.121 60.8035 167.04 61.0072 166.836 61.1702C166.673 61.3331 166.47 61.4146 166.266 61.4146H162.436V61.4146ZM166.022 56.2406V55.6703C166.022 55.5481 165.981 55.4258 165.94 55.3851C165.859 55.3036 165.777 55.2629 165.614 55.2629H163.292C163.129 55.2629 163.047 55.3036 162.966 55.3444C162.885 55.4258 162.844 55.5481 162.844 55.6703V56.2406H166.022ZM166.022 58.3184V57.2184H162.844V58.3184H166.022ZM162.844 59.2961V60.0295C162.844 60.1924 162.885 60.2739 162.966 60.3554C163.047 60.4369 163.129 60.4776 163.292 60.4776H165.655C165.818 60.4776 165.899 60.4369 165.981 60.3554C166.022 60.3146 166.062 60.1924 166.062 60.0702V59.3369H162.844V59.2961ZM165.329 62.0665C165.37 61.9035 165.451 61.7813 165.573 61.6998C165.696 61.5776 165.859 61.5776 165.981 61.5776C166.144 61.6183 166.266 61.6998 166.388 61.8628C166.959 62.6368 167.447 63.6146 167.977 64.8368C168.059 64.9997 168.059 65.1627 168.018 65.3257C167.977 65.4479 167.855 65.5701 167.692 65.6516C167.529 65.6923 167.407 65.6923 167.284 65.6516C167.162 65.5701 167.04 65.4479 166.959 65.2849C166.429 64.1035 165.94 63.1664 165.492 62.5146C165.37 62.3924 165.329 62.2294 165.329 62.0665Z" fill="white"/>
<path d="M174.21 60.4368C174.047 60.4368 173.925 60.4368 173.803 60.3146C173.68 60.1924 173.599 60.0701 173.558 59.9479C173.518 59.785 173.558 59.622 173.68 59.4998C174.699 57.8702 175.31 56.1591 175.473 54.3665C175.514 54.1628 175.595 54.0406 175.717 53.9591C175.84 53.8777 175.962 53.8369 176.125 53.8369C176.288 53.8777 176.41 53.9184 176.492 54.0406C176.695 54.3665 176.532 55.4258 175.962 57.2591V57.2998C175.962 60.1109 175.962 62.9627 175.962 65.7737C175.962 65.9367 175.921 66.0996 175.799 66.1811C175.717 66.2626 175.595 66.3441 175.432 66.3441C175.269 66.3441 175.147 66.3033 175.066 66.2219C174.943 66.0996 174.903 65.9774 174.903 65.7737C174.903 63.7367 174.903 61.659 174.903 59.6627C174.577 60.1516 174.373 60.3961 174.21 60.4368ZM182.521 64.9997C182.317 65.6922 181.991 66.0996 181.543 66.2219C181.014 66.3848 180.321 66.3033 179.425 65.9774C179.262 65.9367 179.18 65.8552 179.099 65.6923C179.058 65.57 179.058 65.4478 179.099 65.2849C179.221 64.9182 179.425 64.8367 179.791 64.9589C180.443 65.1219 180.851 65.1626 181.054 65.0812C181.299 65.0404 181.421 64.8775 181.503 64.6738C181.625 64.3071 181.666 63.9404 181.666 63.533C180.81 64.1034 180.036 64.5515 179.343 64.8367C177.795 65.5293 176.817 65.733 176.492 65.5293C176.369 65.4478 176.329 65.3256 176.288 65.2034C176.247 65.0404 176.288 64.9182 176.369 64.8367C176.451 64.7145 176.614 64.633 176.777 64.633C178.569 64.2256 180.158 63.4923 181.543 62.3923C181.503 62.1479 181.421 61.9442 181.34 61.7405C180.484 62.3516 179.751 62.7997 179.099 63.0849C177.754 63.696 176.94 63.8997 176.614 63.696C176.492 63.6145 176.451 63.4923 176.41 63.3701C176.369 63.2071 176.41 63.0849 176.492 63.0034C176.573 62.8812 176.736 62.7997 176.899 62.7997C178.366 62.5145 179.669 61.9034 180.891 61.0072C180.81 60.8849 180.688 60.7627 180.606 60.6405C179.262 61.3331 178.08 61.7405 177.103 61.9034C176.94 61.9442 176.777 61.9034 176.695 61.822C176.573 61.7405 176.532 61.6183 176.492 61.496C176.492 61.3331 176.492 61.2109 176.573 61.1294C176.654 61.0072 176.817 60.9257 176.98 60.9257C178.325 60.6812 179.506 60.2331 180.606 59.622H177.836C177.632 59.622 177.469 59.5405 177.347 59.3776C177.225 59.2146 177.143 59.0109 177.143 58.8072V57.1776C176.98 57.2183 176.858 57.2183 176.777 57.1776C176.654 57.0961 176.532 57.0146 176.492 56.8924C176.451 56.7295 176.41 56.6072 176.492 56.485C176.532 56.3628 176.654 56.2406 176.817 56.1998C177.469 55.8739 178.08 55.5073 178.569 55.0184C178.895 54.611 179.221 54.4073 179.588 54.4073H183.173C183.377 54.4073 183.54 54.448 183.621 54.5295C183.702 54.611 183.784 54.6925 183.825 54.8554C183.865 54.9776 183.865 55.0999 183.825 55.2221C183.702 55.548 183.377 55.9554 182.806 56.485H184.721C184.965 56.485 185.169 56.5665 185.332 56.6887C185.454 56.8109 185.536 56.9739 185.536 57.1776V58.8072C185.536 59.0109 185.454 59.2146 185.291 59.3776C185.128 59.5405 184.965 59.622 184.762 59.622H182.317C181.991 59.8257 181.747 60.0294 181.503 60.1516C181.869 60.559 182.114 60.9257 182.277 61.2923C182.317 61.3331 182.399 61.4146 182.44 61.496C183.091 62.9627 184.151 64.1441 185.658 65.0404C185.821 65.1626 185.943 65.2848 185.984 65.4071C186.025 65.57 185.984 65.6922 185.902 65.8145C185.821 65.9367 185.699 66.0589 185.536 66.0589C185.373 66.0997 185.251 66.0589 185.088 65.9774C184.191 65.4071 183.377 64.633 182.725 63.696C182.684 64.1441 182.603 64.5515 182.521 64.9997ZM180.728 57.2998H178.569C178.406 57.2998 178.325 57.3406 178.284 57.3813C178.203 57.4628 178.203 57.5443 178.203 57.7072V58.2368C178.203 58.3591 178.243 58.4813 178.284 58.522C178.366 58.6035 178.447 58.6442 178.569 58.6442H180.728V57.2998ZM181.217 56.3628C181.666 56.1184 181.991 55.9147 182.154 55.7517C182.317 55.5887 182.399 55.4665 182.399 55.4665C182.399 55.4258 182.399 55.385 182.358 55.3443C182.317 55.3443 182.277 55.3036 182.195 55.3036H179.832C179.588 55.3036 179.384 55.3443 179.262 55.4665C178.977 55.7924 178.651 56.0776 178.284 56.3221C178.284 56.3221 178.243 56.3221 178.243 56.3628H178.488H181.217ZM181.828 58.6035H184.11C184.232 58.6035 184.354 58.5628 184.395 58.4813C184.436 58.4405 184.477 58.3183 184.477 58.1961V57.6665C184.477 57.5443 184.436 57.422 184.395 57.3813C184.314 57.2998 184.232 57.2591 184.069 57.2591H181.788V58.6035H181.828ZM185.006 59.9479C185.128 59.9479 185.251 59.9479 185.373 60.0701C185.495 60.1516 185.577 60.2738 185.577 60.3961C185.577 60.5183 185.536 60.6812 185.454 60.8035C185.088 61.2923 184.599 61.7812 183.988 62.3108C183.865 62.4331 183.702 62.4738 183.58 62.4738C183.458 62.4738 183.336 62.3923 183.214 62.2701C183.132 62.1479 183.091 62.0257 183.091 61.9034C183.091 61.7405 183.173 61.6183 183.336 61.496C183.906 61.0072 184.354 60.559 184.599 60.1924C184.721 60.0294 184.843 59.9479 185.006 59.9479Z" fill="white"/>
</svg>
