<svg width="20" height="20" viewBox="0 0 20 20" fill="none" xmlns="http://www.w3.org/2000/svg">
<path fill-rule="evenodd" clip-rule="evenodd" d="M15.8709 14.8137C18.8697 11.2777 18.7007 5.97276 15.364 2.63604C11.8492 -0.87868 6.15076 -0.87868 2.63604 2.63604C-0.87868 6.15076 -0.87868 11.8492 2.63604 15.364C5.9734 18.7013 11.2797 18.8697 14.8158 15.8692L17.988 19.0121C18.2796 19.3032 18.7509 19.3017 19.0407 19.0086C19.3304 18.7155 19.3289 18.2419 19.0372 17.9508L15.8709 14.8137ZM14.2647 14.2647C11.3571 17.1724 6.6429 17.1724 3.73527 14.2647C0.827638 11.3571 0.827638 6.6429 3.73527 3.73527C6.6429 0.827638 11.3571 0.827638 14.2647 3.73527C17.1724 6.6429 17.1724 11.3571 14.2647 14.2647Z" fill="#F7422F"/>
</svg>
